<svg width="132" height="135" viewBox="0 0 132 135" fill="none" xmlns="http://www.w3.org/2000/svg">
<g filter="url(#filter0_i_95_14)">
<path d="M17.4075 4C16.4702 11.3591 17.1269 15.5853 19.6149 23.2349C37.5726 28.1157 42.4288 26.515 45 18.592C43.0541 12.0509 41.0939 9.90782 37.2741 6.65309V15.2756C27.8589 17.0555 23.9106 13.0882 17.4075 4Z" fill="#FF6B00"/>
</g>
<g filter="url(#filter1_i_95_14)">
<path d="M14 14.5C14.9799 19.4767 16.8238 21.1664 21.5 23C18.9479 17.7921 18.0658 14.7819 19 9C28.2734 16.2347 32.4899 18.1316 37.5 16V9L43 14.5C44.8386 17.8194 45.2383 19.6806 43 23C38.8233 25.3394 35.9237 25.9253 29 24.5C25.4448 25.2945 23.5281 25.989 20.5 28.5C17.7481 34.1682 17.0235 37.4336 18 43.5L16.5 60.5C14.0524 63.0625 12.0381 63.8911 7 64L7.5 69C13.2054 68.9717 15.4455 70.4898 18 75.5L19 101.5C21.3748 105.172 23.3166 105.989 27 107H62C64.4857 104.903 64.7346 102.504 64.5 97.5V38.5C64.0522 33.2035 64.7095 31.8396 66.5 30.5H87C93.2489 29.9912 94.8656 30.9016 97 33L98.5 63L108 66.5L100 71.5L98.5 81C98.4913 89.3379 98.3994 93.9878 95.5 101.5L87 103.5L86 107C91.2223 108.023 93.945 107.979 98.5 107C102.617 104.988 103.961 103.18 105 99C104.082 82.6681 104.502 76.0125 108 71.5L117 66.5C117 66.5 115 62.5 112 63C109 63.5 105 58 105 58V35C103.857 30.2142 102.613 28.0807 98.5 26H62C60.1405 25.2611 59.1593 25.6371 57.5 27.5V102.5H29L25.5 99V76C24.0904 70.5587 23.1477 70.214 21.5 69L15 66.5L21.5 63C25.6091 58.7171 26.5689 54.5575 25.5 43.5C25.769 34.92 26.8033 31.7561 31 30.5C39.4549 29.6443 43.6539 28.5997 49 24.5L51 17.5C43.6185 11.4924 39.566 7.67385 32.5 0L31 11C25.1923 8.19788 22.533 5.82971 19 0C15.8822 4.93489 14.7319 8.07502 14 14.5Z" fill="black"/>
</g>
<g filter="url(#filter2_d_95_14)">
<path d="M9.58239 120.435H7.4517C7.4233 120.216 7.36506 120.018 7.27699 119.842C7.18892 119.666 7.07244 119.516 6.92756 119.391C6.78267 119.266 6.6108 119.17 6.41193 119.105C6.21591 119.037 5.99858 119.003 5.75994 119.003C5.33665 119.003 4.97159 119.107 4.66477 119.314C4.3608 119.521 4.12642 119.821 3.96165 120.213C3.79972 120.605 3.71875 121.08 3.71875 121.636C3.71875 122.216 3.80114 122.702 3.96591 123.094C4.13352 123.483 4.3679 123.777 4.66903 123.976C4.97301 124.172 5.33239 124.27 5.74716 124.27C5.98011 124.27 6.19176 124.24 6.3821 124.18C6.57528 124.121 6.74432 124.034 6.8892 123.92C7.03693 123.804 7.15767 123.663 7.25142 123.499C7.34801 123.331 7.41477 123.142 7.4517 122.932L9.58239 122.945C9.54545 123.331 9.43324 123.712 9.24574 124.087C9.06108 124.462 8.80682 124.804 8.48295 125.114C8.15909 125.42 7.7642 125.665 7.2983 125.847C6.83523 126.028 6.30398 126.119 5.70455 126.119C4.91477 126.119 4.20739 125.946 3.58239 125.599C2.96023 125.25 2.46875 124.741 2.10795 124.074C1.74716 123.406 1.56676 122.594 1.56676 121.636C1.56676 120.676 1.75 119.862 2.11648 119.195C2.48295 118.527 2.97869 118.02 3.60369 117.673C4.22869 117.327 4.92898 117.153 5.70455 117.153C6.23295 117.153 6.72159 117.227 7.17045 117.375C7.61932 117.52 8.0142 117.733 8.35511 118.014C8.69602 118.293 8.97301 118.635 9.18608 119.041C9.39915 119.447 9.53125 119.912 9.58239 120.435ZM19.0266 121.636C19.0266 122.597 18.842 123.411 18.4727 124.078C18.1033 124.746 17.6033 125.253 16.9727 125.599C16.3448 125.946 15.6403 126.119 14.859 126.119C14.0749 126.119 13.369 125.945 12.7411 125.595C12.1133 125.246 11.6147 124.739 11.2454 124.074C10.8789 123.406 10.6957 122.594 10.6957 121.636C10.6957 120.676 10.8789 119.862 11.2454 119.195C11.6147 118.527 12.1133 118.02 12.7411 117.673C13.369 117.327 14.0749 117.153 14.859 117.153C15.6403 117.153 16.3448 117.327 16.9727 117.673C17.6033 118.02 18.1033 118.527 18.4727 119.195C18.842 119.862 19.0266 120.676 19.0266 121.636ZM16.8704 121.636C16.8704 121.068 16.7894 120.588 16.6275 120.196C16.4684 119.804 16.2383 119.507 15.9371 119.305C15.6388 119.104 15.2795 119.003 14.859 119.003C14.4414 119.003 14.082 119.104 13.7809 119.305C13.4798 119.507 13.2482 119.804 13.0863 120.196C12.9272 120.588 12.8477 121.068 12.8477 121.636C12.8477 122.205 12.9272 122.685 13.0863 123.077C13.2482 123.469 13.4798 123.766 13.7809 123.967C14.082 124.169 14.4414 124.27 14.859 124.27C15.2795 124.27 15.6388 124.169 15.9371 123.967C16.2383 123.766 16.4684 123.469 16.6275 123.077C16.7894 122.685 16.8704 122.205 16.8704 121.636ZM23.484 126H20.2582V117.273H23.4798C24.369 117.273 25.1346 117.447 25.7766 117.797C26.4215 118.143 26.9187 118.643 27.2681 119.297C27.6175 119.947 27.7923 120.726 27.7923 121.632C27.7923 122.541 27.6175 123.322 27.2681 123.976C26.9215 124.629 26.4258 125.131 25.7809 125.48C25.136 125.827 24.3704 126 23.484 126ZM22.3675 124.202H23.4031C23.8917 124.202 24.305 124.119 24.6431 123.955C24.984 123.787 25.2411 123.516 25.4144 123.141C25.5906 122.763 25.6786 122.26 25.6786 121.632C25.6786 121.004 25.5906 120.504 25.4144 120.132C25.2383 119.757 24.9783 119.487 24.6346 119.322C24.2937 119.155 23.8732 119.071 23.3732 119.071H22.3675V124.202ZM29.0238 126V117.273H35.109V118.986H31.1332V120.776H34.7979V122.493H31.1332V124.287H35.109V126H29.0238ZM36.43 126V117.273H40.0352C40.6886 117.273 41.2525 117.391 41.7269 117.626C42.2042 117.859 42.5721 118.195 42.8306 118.632C43.0891 119.067 43.2184 119.582 43.2184 120.179C43.2184 120.784 43.0863 121.298 42.8221 121.722C42.5579 122.142 42.1829 122.463 41.6971 122.685C41.2113 122.903 40.636 123.013 39.9712 123.013H37.6914V121.351H39.5792C39.8974 121.351 40.163 121.31 40.3761 121.227C40.592 121.142 40.7553 121.014 40.8661 120.844C40.9769 120.67 41.0323 120.449 41.0323 120.179C41.0323 119.909 40.9769 119.686 40.8661 119.51C40.7553 119.331 40.592 119.197 40.3761 119.109C40.1602 119.018 39.8945 118.973 39.5792 118.973H38.5394V126H36.43ZM41.3434 122.011L43.5167 126H41.2156L39.0849 122.011H41.3434Z" fill="#FF6B00"/>
<path d="M46.9535 117.273H49.5657L51.7816 122.676H51.8839L54.0998 117.273H56.712V126H54.658V120.639H54.5856L52.489 125.945H51.1765L49.0799 120.609H49.0075V126H46.9535V117.273ZM59.9155 126H57.6484L60.593 117.273H63.4013L66.3459 126H64.0788L62.0291 119.472H61.9609L59.9155 126ZM59.6129 122.565H64.3516V124.168H59.6129V122.565ZM67.2855 126V117.273H70.8906C71.544 117.273 72.108 117.391 72.5824 117.626C73.0597 117.859 73.4276 118.195 73.6861 118.632C73.9446 119.067 74.0739 119.582 74.0739 120.179C74.0739 120.784 73.9418 121.298 73.6776 121.722C73.4134 122.142 73.0384 122.463 72.5526 122.685C72.0668 122.903 71.4915 123.013 70.8267 123.013H68.5469V121.351H70.4347C70.7528 121.351 71.0185 121.31 71.2315 121.227C71.4474 121.142 71.6108 121.014 71.7216 120.844C71.8324 120.67 71.8878 120.449 71.8878 120.179C71.8878 119.909 71.8324 119.686 71.7216 119.51C71.6108 119.331 71.4474 119.197 71.2315 119.109C71.0156 119.018 70.75 118.973 70.4347 118.973H69.3949V126H67.2855ZM72.1989 122.011L74.3722 126H72.071L69.9403 122.011H72.1989ZM75.2308 126V117.273H77.3402V120.963H77.4553L80.3402 117.273H82.8246L79.7308 121.168L82.88 126H80.3572L78.1839 122.57L77.3402 123.635V126H75.2308ZM86.8825 126H83.6566V117.273H86.8782C87.7674 117.273 88.533 117.447 89.1751 117.797C89.82 118.143 90.3171 118.643 90.6665 119.297C91.016 119.947 91.1907 120.726 91.1907 121.632C91.1907 122.541 91.016 123.322 90.6665 123.976C90.32 124.629 89.8242 125.131 89.1793 125.48C88.5344 125.827 87.7688 126 86.8825 126ZM85.766 124.202H86.8015C87.2901 124.202 87.7035 124.119 88.0415 123.955C88.3825 123.787 88.6396 123.516 88.8129 123.141C88.989 122.763 89.0771 122.26 89.0771 121.632C89.0771 121.004 88.989 120.504 88.8129 120.132C88.6367 119.757 88.3768 119.487 88.033 119.322C87.6921 119.155 87.2717 119.071 86.7717 119.071H85.766V124.202ZM100.659 121.636C100.659 122.597 100.475 123.411 100.105 124.078C99.7362 124.746 99.2362 125.253 98.6055 125.599C97.9776 125.946 97.2731 126.119 96.4918 126.119C95.7077 126.119 95.0018 125.945 94.3739 125.595C93.7461 125.246 93.2475 124.739 92.8782 124.074C92.5117 123.406 92.3285 122.594 92.3285 121.636C92.3285 120.676 92.5117 119.862 92.8782 119.195C93.2475 118.527 93.7461 118.02 94.3739 117.673C95.0018 117.327 95.7077 117.153 96.4918 117.153C97.2731 117.153 97.9776 117.327 98.6055 117.673C99.2362 118.02 99.7362 118.527 100.105 119.195C100.475 119.862 100.659 120.676 100.659 121.636ZM98.5032 121.636C98.5032 121.068 98.4222 120.588 98.2603 120.196C98.1012 119.804 97.8711 119.507 97.57 119.305C97.2717 119.104 96.9123 119.003 96.4918 119.003C96.0742 119.003 95.7148 119.104 95.4137 119.305C95.1126 119.507 94.881 119.804 94.7191 120.196C94.56 120.588 94.4805 121.068 94.4805 121.636C94.4805 122.205 94.56 122.685 94.7191 123.077C94.881 123.469 95.1126 123.766 95.4137 123.967C95.7148 124.169 96.0742 124.27 96.4918 124.27C96.9123 124.27 97.2717 124.169 97.57 123.967C97.8711 123.766 98.1012 123.469 98.2603 123.077C98.4222 122.685 98.5032 122.205 98.5032 121.636ZM103.55 126L101.01 117.273H103.341L104.658 122.991H104.73L106.234 117.273H108.135L109.639 123.004H109.712L111.033 117.273H113.359L110.824 126H108.791L107.219 120.707H107.151L105.578 126H103.55ZM121.658 117.273V126H119.869L116.396 120.963H116.34V126H114.231V117.273H116.046L119.481 122.301H119.553V117.273H121.658Z" fill="black"/>
</g>
<g filter="url(#filter3_i_95_14)">
<circle cx="74.5" cy="44.5" r="4.5" fill="#FF6B00"/>
</g>
<g filter="url(#filter4_i_95_14)">
<circle cx="35.5" cy="44.5" r="4.5" fill="#FF6B00"/>
</g>
<g filter="url(#filter5_i_95_14)">
<path d="M84.4385 81.3737C83.8294 80.9664 83.8506 80.064 84.4782 79.6859L89.181 76.8524C89.8565 76.4454 90.7153 76.944 90.6968 77.7325L90.5581 83.6177C90.5396 84.4062 89.6582 84.8638 89.0026 84.4254L84.4385 81.3737Z" fill="#FF6B00"/>
</g>
<defs>
<filter id="filter0_i_95_14" x="17" y="3" width="28" height="23" filterUnits="userSpaceOnUse" color-interpolation-filters="sRGB">
<feFlood flood-opacity="0" result="BackgroundImageFix"/>
<feBlend mode="normal" in="SourceGraphic" in2="BackgroundImageFix" result="shape"/>
<feColorMatrix in="SourceAlpha" type="matrix" values="0 0 0 0 0 0 0 0 0 0 0 0 0 0 0 0 0 0 127 0" result="hardAlpha"/>
<feOffset dy="-1"/>
<feGaussianBlur stdDeviation="2"/>
<feComposite in2="hardAlpha" operator="arithmetic" k2="-1" k3="1"/>
<feColorMatrix type="matrix" values="0 0 0 0 0 0 0 0 0 0 0 0 0 0 0 0 0 0 0.25 0"/>
<feBlend mode="normal" in2="shape" result="effect1_innerShadow_95_14"/>
</filter>
<filter id="filter1_i_95_14" x="7" y="-1" width="110" height="108.751" filterUnits="userSpaceOnUse" color-interpolation-filters="sRGB">
<feFlood flood-opacity="0" result="BackgroundImageFix"/>
<feBlend mode="normal" in="SourceGraphic" in2="BackgroundImageFix" result="shape"/>
<feColorMatrix in="SourceAlpha" type="matrix" values="0 0 0 0 0 0 0 0 0 0 0 0 0 0 0 0 0 0 127 0" result="hardAlpha"/>
<feOffset dy="-1"/>
<feGaussianBlur stdDeviation="2"/>
<feComposite in2="hardAlpha" operator="arithmetic" k2="-1" k3="1"/>
<feColorMatrix type="matrix" values="0 0 0 0 0 0 0 0 0 0 0 0 0 0 0 0 0 0 0.25 0"/>
<feBlend mode="normal" in2="shape" result="effect1_innerShadow_95_14"/>
</filter>
<filter id="filter2_d_95_14" x="0.566772" y="117.153" width="128.092" height="16.9659" filterUnits="userSpaceOnUse" color-interpolation-filters="sRGB">
<feFlood flood-opacity="0" result="BackgroundImageFix"/>
<feColorMatrix in="SourceAlpha" type="matrix" values="0 0 0 0 0 0 0 0 0 0 0 0 0 0 0 0 0 0 127 0" result="hardAlpha"/>
<feOffset dx="3" dy="4"/>
<feGaussianBlur stdDeviation="2"/>
<feComposite in2="hardAlpha" operator="out"/>
<feColorMatrix type="matrix" values="0 0 0 0 0 0 0 0 0 0 0 0 0 0 0 0 0 0 0.25 0"/>
<feBlend mode="normal" in2="BackgroundImageFix" result="effect1_dropShadow_95_14"/>
<feBlend mode="normal" in="SourceGraphic" in2="effect1_dropShadow_95_14" result="shape"/>
</filter>
<filter id="filter3_i_95_14" x="70" y="39" width="9" height="10" filterUnits="userSpaceOnUse" color-interpolation-filters="sRGB">
<feFlood flood-opacity="0" result="BackgroundImageFix"/>
<feBlend mode="normal" in="SourceGraphic" in2="BackgroundImageFix" result="shape"/>
<feColorMatrix in="SourceAlpha" type="matrix" values="0 0 0 0 0 0 0 0 0 0 0 0 0 0 0 0 0 0 127 0" result="hardAlpha"/>
<feOffset dy="-1"/>
<feGaussianBlur stdDeviation="2"/>
<feComposite in2="hardAlpha" operator="arithmetic" k2="-1" k3="1"/>
<feColorMatrix type="matrix" values="0 0 0 0 0 0 0 0 0 0 0 0 0 0 0 0 0 0 0.25 0"/>
<feBlend mode="normal" in2="shape" result="effect1_innerShadow_95_14"/>
</filter>
<filter id="filter4_i_95_14" x="31" y="39" width="9" height="10" filterUnits="userSpaceOnUse" color-interpolation-filters="sRGB">
<feFlood flood-opacity="0" result="BackgroundImageFix"/>
<feBlend mode="normal" in="SourceGraphic" in2="BackgroundImageFix" result="shape"/>
<feColorMatrix in="SourceAlpha" type="matrix" values="0 0 0 0 0 0 0 0 0 0 0 0 0 0 0 0 0 0 127 0" result="hardAlpha"/>
<feOffset dy="-1"/>
<feGaussianBlur stdDeviation="2"/>
<feComposite in2="hardAlpha" operator="arithmetic" k2="-1" k3="1"/>
<feColorMatrix type="matrix" values="0 0 0 0 0 0 0 0 0 0 0 0 0 0 0 0 0 0 0.25 0"/>
<feBlend mode="normal" in2="shape" result="effect1_innerShadow_95_14"/>
</filter>
<filter id="filter5_i_95_14" x="83.9943" y="75.7073" width="6.70276" height="8.88846" filterUnits="userSpaceOnUse" color-interpolation-filters="sRGB">
<feFlood flood-opacity="0" result="BackgroundImageFix"/>
<feBlend mode="normal" in="SourceGraphic" in2="BackgroundImageFix" result="shape"/>
<feColorMatrix in="SourceAlpha" type="matrix" values="0 0 0 0 0 0 0 0 0 0 0 0 0 0 0 0 0 0 127 0" result="hardAlpha"/>
<feOffset dy="-1"/>
<feGaussianBlur stdDeviation="2"/>
<feComposite in2="hardAlpha" operator="arithmetic" k2="-1" k3="1"/>
<feColorMatrix type="matrix" values="0 0 0 0 0 0 0 0 0 0 0 0 0 0 0 0 0 0 0.25 0"/>
<feBlend mode="normal" in2="shape" result="effect1_innerShadow_95_14"/>
</filter>
</defs>
</svg>
